<svg width="16" height="17" viewBox="0 0 16 17" fill="none" xmlns="http://www.w3.org/2000/svg">
<path d="M1.8667 0.549168C2.25781 0.158056 2.71115 -0.019722 3.2267 0.0158339C3.74226 0.0513897 4.16004 0.2825 4.48004 0.709167L6.29337 3.0025C6.47115 3.21583 6.5867 3.45583 6.64004 3.7225C6.69337 3.98917 6.68448 4.24694 6.61337 4.49583L6.08004 6.6825C6.00893 6.93139 6.06226 7.14472 6.24004 7.3225L8.69337 9.77583C8.87115 9.95361 9.08448 10.0069 9.33337 9.93583L11.52 9.4025C11.7689 9.33139 12.0267 9.3225 12.2934 9.37583C12.56 9.42917 12.8 9.54472 13.0134 9.7225L15.3067 11.5358C15.7334 11.8558 15.9645 12.2736 16 12.7892C16.0356 13.3047 15.8578 13.7581 15.4667 14.1492L14.4534 15.1625C14.0623 15.5536 13.6089 15.8114 13.0934 15.9358C12.5778 16.0603 12.0711 16.0336 11.5734 15.8558C8.9067 14.9314 6.56893 13.4647 4.56004 11.4558C2.55115 9.44694 1.08448 7.10917 0.160037 4.4425C-0.0177412 3.94472 -0.0444079 3.43806 0.0800366 2.9225C0.204481 2.40694 0.462259 1.95361 0.85337 1.5625L1.8667 0.549168Z" fill="#012E41"/>
</svg>
