<svg width="16" height="17" viewBox="0 0 16 17" fill="none" xmlns="http://www.w3.org/2000/svg">
<path d="M16 8.26915C16 6.81138 15.6444 5.46915 14.9333 4.24249C14.2222 3.01582 13.2533 2.03804 12.0267 1.30915C10.8 0.580264 9.45778 0.21582 8 0.21582C6.54222 0.21582 5.2 0.580264 3.97333 1.30915C2.74667 2.03804 1.77778 3.01582 1.06667 4.24249C0.355556 5.46915 0 6.81138 0 8.26915C0 9.58471 0.293333 10.8114 0.88 11.9492C1.46667 13.0869 2.27556 14.0292 3.30667 14.7758C4.33778 15.5225 5.49333 16.0025 6.77333 16.2158V10.6158H4.69333V8.26915H6.77333V6.50915C6.77333 5.5136 7.04 4.74026 7.57333 4.18915C8.10667 3.63804 8.83556 3.36249 9.76 3.36249C10.1156 3.36249 10.5244 3.38026 10.9867 3.41582L11.5733 3.52249V5.49582H10.56C10.0978 5.49582 9.76 5.61138 9.54667 5.84249C9.33333 6.0736 9.22667 6.38471 9.22667 6.77582V8.26915H11.4667L11.0933 10.6158H9.22667V16.2158C10.5067 16.0025 11.6622 15.5225 12.6933 14.7758C13.7244 14.0292 14.5333 13.0869 15.12 11.9492C15.7067 10.8114 16 9.58471 16 8.26915Z" fill="#012E41"/>
</svg>
