<svg width="14" height="13" viewBox="0 0 14 13" fill="none" xmlns="http://www.w3.org/2000/svg">
<path d="M7 5.39494L6.20667 3.80827C5.92667 3.24827 5.6 2.78161 5.22667 2.40827C4.69778 1.9105 4.12222 1.67716 3.5 1.70827C2.78444 1.67716 2.17 1.91827 1.65667 2.43161C1.14333 2.94494 0.886667 3.54383 0.886667 4.22827C0.886667 4.75716 1.01111 5.23161 1.26 5.65161C1.50889 6.07161 1.92889 6.57716 2.52 7.16827L3.5 8.14827C4.96222 9.51716 6.12889 10.6994 7 11.6949C7.87111 10.6994 9.03778 9.51716 10.5 8.14827L11.48 7.16827C12.0711 6.57716 12.4911 6.07161 12.74 5.65161C12.9889 5.23161 13.1133 4.75716 13.1133 4.22827C13.1133 3.54383 12.8567 2.94494 12.3433 2.43161C11.83 1.91827 11.2156 1.66161 10.5 1.66161C9.87778 1.66161 9.30222 1.9105 8.77333 2.40827C8.4 2.78161 8.07333 3.24827 7.79333 3.80827L7 5.39494ZM7.32667 12.6283C7.23333 12.7527 7.12444 12.8149 7 12.8149C6.87556 12.8149 6.76667 12.7527 6.67333 12.6283C6.05111 11.9127 5.38222 11.1972 4.66667 10.4816C4.26222 10.0461 3.68667 9.48605 2.94 8.80161C2.19333 8.08605 1.66444 7.57272 1.35333 7.26161C0.917778 6.76383 0.583333 6.28161 0.35 5.81494C0.116667 5.34827 0 4.81161 0 4.20494C0 3.59827 0.155556 3.03827 0.466667 2.52494C0.777778 2.01161 1.20556 1.59939 1.75 1.28827C2.29444 0.977163 2.87778 0.821608 3.5 0.821608C4.12222 0.821608 4.71333 1.00828 5.27333 1.38161C5.70889 1.66161 6.11333 2.0505 6.48667 2.54827C6.67333 2.82827 6.84444 3.12383 7 3.43494C7.15556 3.12383 7.32667 2.82827 7.51333 2.54827C7.88667 2.0505 8.29111 1.66161 8.72667 1.38161C9.28667 1.00828 9.87778 0.821608 10.5 0.821608C11.1222 0.821608 11.7056 0.977163 12.25 1.28827C12.7944 1.59939 13.2222 2.01161 13.5333 2.52494C13.8444 3.03827 14 3.59827 14 4.20494C14 4.81161 13.8833 5.34827 13.65 5.81494C13.4167 6.28161 13.0822 6.76383 12.6467 7.26161C12.3356 7.57272 11.8067 8.08605 11.06 8.80161C10.3133 9.48605 9.73778 10.0461 9.33333 10.4816C8.61778 11.1972 7.94889 11.9127 7.32667 12.6283Z" fill="black"/>
</svg>
