<svg width="16" height="17" viewBox="0 0 16 17" fill="none" xmlns="http://www.w3.org/2000/svg">
<path d="M8 0.21582C6.50667 0.21582 5.39556 0.233598 4.66667 0.269154C3.93778 0.304708 3.30667 0.429153 2.77333 0.642487C2.24 0.85582 1.76889 1.16693 1.36 1.57582C0.951111 1.98471 0.64 2.45582 0.426667 2.98915C0.213333 3.52249 0.0888889 4.1536 0.0533333 4.88249C0.0177778 5.61138 0 6.72249 0 8.21582C0 9.70915 0.0177778 10.8203 0.0533333 11.5492C0.0888889 12.278 0.213333 12.9092 0.426667 13.4425C0.64 13.9758 0.951111 14.4469 1.36 14.8558C1.76889 15.2647 2.24 15.5758 2.77333 15.7892C3.30667 16.0025 3.93778 16.1269 4.66667 16.1625C5.39556 16.198 6.50667 16.2158 8 16.2158C9.49333 16.2158 10.6044 16.198 11.3333 16.1625C12.0622 16.1269 12.6933 16.0025 13.2267 15.7892C13.76 15.5758 14.2311 15.2647 14.64 14.8558C15.0489 14.4469 15.36 13.9758 15.5733 13.4425C15.7867 12.9092 15.9111 12.278 15.9467 11.5492C15.9822 10.8203 16 9.70915 16 8.21582C16 6.72249 15.9822 5.61138 15.9467 4.88249C15.9111 4.1536 15.7867 3.52249 15.5733 2.98915C15.36 2.45582 15.0489 1.98471 14.64 1.57582C14.2311 1.16693 13.76 0.85582 13.2267 0.642487C12.6933 0.429153 12.0622 0.304708 11.3333 0.269154C10.6044 0.233598 9.49333 0.21582 8 0.21582ZM7.30667 1.65582H8C9.49333 1.65582 10.5778 1.6736 11.2533 1.70915C11.8222 1.74471 12.2933 1.8336 12.6667 1.97582C13.04 2.11804 13.36 2.32249 13.6267 2.58915C13.8933 2.85582 14.0978 3.17582 14.24 3.54915C14.3822 3.92249 14.4711 4.3936 14.5067 4.96249C14.5422 5.63804 14.56 6.72249 14.56 8.21582C14.56 9.70915 14.5422 10.7936 14.5067 11.4692C14.4711 12.038 14.3822 12.5092 14.24 12.8825C14.0978 13.2558 13.8933 13.5758 13.6267 13.8425C13.36 14.1092 13.04 14.3136 12.6667 14.4558C12.2933 14.598 11.8222 14.6869 11.2533 14.7225C10.5422 14.758 9.45778 14.7758 8 14.7758C6.54222 14.7758 5.45778 14.758 4.74667 14.7225C4.17778 14.6869 3.70667 14.598 3.33333 14.4558C2.96 14.3136 2.64 14.1092 2.37333 13.8425C2.10667 13.5758 1.90222 13.2558 1.76 12.8825C1.61778 12.5092 1.52889 12.038 1.49333 11.4692C1.45778 10.758 1.44 9.66471 1.44 8.18915C1.44 6.7136 1.45778 5.63804 1.49333 4.96249C1.52889 4.3936 1.61778 3.92249 1.76 3.54915C1.90222 3.17582 2.10667 2.85582 2.37333 2.58915C2.64 2.32249 2.96 2.11804 3.33333 1.97582C3.70667 1.8336 4.19556 1.74471 4.8 1.70915C5.40444 1.6736 6.24 1.65582 7.30667 1.65582ZM12.2667 2.98915C12.0178 2.98915 11.7956 3.07804 11.6 3.25582C11.4044 3.4336 11.3067 3.65582 11.3067 3.92249C11.3067 4.18915 11.4044 4.42026 11.6 4.61582C11.7956 4.81138 12.0267 4.90915 12.2933 4.90915C12.56 4.90915 12.7822 4.81138 12.96 4.61582C13.1378 4.42026 13.2267 4.18915 13.2267 3.92249C13.2267 3.65582 13.1378 3.4336 12.96 3.25582C12.7822 3.07804 12.5511 2.98915 12.2667 2.98915ZM8 4.10915C7.25333 4.10915 6.56 4.28693 5.92 4.64249C5.28 4.99804 4.77333 5.49582 4.4 6.13582C4.02667 6.77582 3.84 7.46915 3.84 8.21582C3.84 8.96249 4.02667 9.65582 4.4 10.2958C4.77333 10.9358 5.28 11.4336 5.92 11.7892C6.56 12.1447 7.25333 12.3225 8 12.3225C8.74667 12.3225 9.43111 12.1358 10.0533 11.7625C10.6756 11.3892 11.1644 10.8914 11.52 10.2692C11.8756 9.64693 12.0533 8.96249 12.0533 8.21582C12.0533 7.46915 11.8756 6.78471 11.52 6.16249C11.1644 5.54026 10.6756 5.04249 10.0533 4.66915C9.43111 4.29582 8.74667 4.10915 8 4.10915ZM8 5.54915C8.46222 5.54915 8.90667 5.66471 9.33333 5.89582C9.76 6.12693 10.0889 6.45582 10.32 6.88249C10.5511 7.30915 10.6667 7.7536 10.6667 8.21582C10.6667 8.67804 10.5511 9.12249 10.32 9.54915C10.0889 9.97582 9.76 10.3047 9.33333 10.5358C8.90667 10.7669 8.46222 10.8825 8 10.8825C7.25333 10.8825 6.62222 10.6247 6.10667 10.1092C5.59111 9.5936 5.33333 8.96249 5.33333 8.21582C5.33333 7.46915 5.59111 6.83804 6.10667 6.32249C6.62222 5.80693 7.25333 5.54915 8 5.54915Z" fill="#012E41"/>
</svg>
