<svg width="12" height="15" viewBox="0 0 12 15" fill="none" xmlns="http://www.w3.org/2000/svg">
<path d="M5.99999 14.2852C6.27999 14.0052 6.55999 13.7252 6.83999 13.4452C7.49332 12.7607 8.08443 12.0607 8.61332 11.3452C9.3911 10.3185 9.99777 9.3696 10.4333 8.49849C10.9933 7.37849 11.2733 6.38293 11.2733 5.51182C11.2733 4.57849 11.0322 3.70738 10.55 2.89849C10.0678 2.0896 9.42999 1.45182 8.63665 0.985156C7.84332 0.51849 6.96443 0.285156 5.99999 0.285156C5.03554 0.285156 4.15665 0.51849 3.36332 0.985156C2.56999 1.45182 1.93221 2.0896 1.44999 2.89849C0.967765 3.70738 0.726654 4.57849 0.726654 5.51182C0.726654 6.38293 1.00665 7.37849 1.56665 8.49849C2.00221 9.3696 2.60888 10.3185 3.38665 11.3452C3.91554 12.0607 4.50665 12.7607 5.15999 13.4452L5.99999 14.2852ZM5.99999 8.17182C5.28443 8.17182 4.66999 7.91516 4.15665 7.40182C3.64332 6.88849 3.38665 6.26627 3.38665 5.53516C3.38665 4.80404 3.64332 4.18182 4.15665 3.66849C4.66999 3.15516 5.28443 2.89849 5.99999 2.89849C6.71554 2.89849 7.32999 3.15516 7.84332 3.66849C8.35665 4.18182 8.61332 4.80404 8.61332 5.53516C8.61332 6.26627 8.35665 6.88849 7.84332 7.40182C7.32999 7.91516 6.71554 8.17182 5.99999 8.17182Z" fill="#FA7335"/>
</svg>
