<svg width="14" height="17" viewBox="0 0 14 17" fill="none" xmlns="http://www.w3.org/2000/svg">
<path d="M7.00006 16.0156C7.32006 15.6956 7.64006 15.3756 7.96006 15.0556C8.70672 14.2734 9.38228 13.4734 9.98672 12.6556C10.8756 11.4823 11.5689 10.3978 12.0667 9.40229C12.7067 8.12229 13.0267 6.98451 13.0267 5.98896C13.0267 4.92229 12.7512 3.92674 12.2001 3.00229C11.6489 2.07785 10.9201 1.34896 10.0134 0.815624C9.10672 0.282291 8.10228 0.015625 7.00006 0.015625C5.89783 0.015625 4.89339 0.282291 3.98672 0.815624C3.08006 1.34896 2.35117 2.07785 1.80006 3.00229C1.24894 3.92674 0.973389 4.92229 0.973389 5.98896C0.973389 6.98451 1.29339 8.12229 1.93339 9.40229C2.43117 10.3978 3.1245 11.4823 4.01339 12.6556C4.61783 13.4734 5.29339 14.2734 6.04006 15.0556L7.00006 16.0156ZM7.00006 9.02896C6.18228 9.02896 5.48006 8.73562 4.89339 8.14896C4.30672 7.56229 4.01339 6.85118 4.01339 6.01562C4.01339 5.18007 4.30672 4.46896 4.89339 3.88229C5.48006 3.29562 6.18228 3.00229 7.00006 3.00229C7.81783 3.00229 8.52006 3.29562 9.10672 3.88229C9.69339 4.46896 9.98672 5.18007 9.98672 6.01562C9.98672 6.85118 9.69339 7.56229 9.10672 8.14896C8.52006 8.73562 7.81783 9.02896 7.00006 9.02896Z" fill="#012E41"/>
</svg>
