<svg width="16" height="14" viewBox="0 0 16 14" fill="none" xmlns="http://www.w3.org/2000/svg">
<path d="M0.0533333 2.58866C0.16 2.12644 0.391111 1.74421 0.746667 1.44199C1.10222 1.13977 1.51111 0.988659 1.97333 0.988659H14.0267C14.4889 0.988659 14.8978 1.13977 15.2533 1.44199C15.6089 1.74421 15.84 2.12644 15.9467 2.58866L8 7.44199L0.0533333 2.58866ZM0 3.70866V10.802L5.81333 7.28199L0 3.70866ZM6.77333 7.86866L0.213333 11.8687C0.355556 12.2242 0.595556 12.5087 0.933333 12.722C1.27111 12.9353 1.61778 13.042 1.97333 13.042H14.0267C14.3822 13.042 14.7289 12.9353 15.0667 12.722C15.4044 12.5087 15.6444 12.2242 15.7867 11.8687L9.22667 7.86866L8 8.61533L6.77333 7.86866ZM10.1867 7.28199L16 10.802V3.70866L10.1867 7.28199Z" fill="#012E41"/>
</svg>
