<svg width="14" height="10" viewBox="0 0 14 10" fill="none" xmlns="http://www.w3.org/2000/svg">
<path d="M0.0133057 5.18602C0.0133057 5.04379 0.0577501 4.92824 0.146639 4.83935C0.235528 4.75046 0.351083 4.70602 0.493306 4.70602H12.28L9.13331 1.55935C9.02664 1.45268 8.97331 1.32824 8.97331 1.18602C8.97331 1.04379 9.02664 0.928238 9.13331 0.839349C9.23997 0.75046 9.36442 0.706016 9.50664 0.706016C9.64886 0.706016 9.77331 0.741571 9.87997 0.812682L13.88 4.81268C13.9511 4.91935 13.9866 5.04379 13.9866 5.18602C13.9866 5.32824 13.9511 5.45268 13.88 5.55935L9.87997 9.55935C9.77331 9.63046 9.64886 9.66602 9.50664 9.66602C9.36442 9.66602 9.23997 9.62157 9.13331 9.53268C9.02664 9.44379 8.97331 9.32824 8.97331 9.18602C8.97331 9.04379 9.02664 8.91935 9.13331 8.81268L12.28 5.66602H0.493306C0.351083 5.66602 0.235528 5.62157 0.146639 5.53268C0.0577501 5.44379 0.0133057 5.32824 0.0133057 5.18602Z" fill="#012E41"/>
</svg>
