<svg width="16" height="17" viewBox="0 0 16 17" fill="none" xmlns="http://www.w3.org/2000/svg">
<path d="M7.99999 0.215924C6.71999 0.215924 5.52888 0.49148 4.42666 1.04259C3.32444 1.5937 2.3911 2.36704 1.62666 3.36259C0.862215 4.35815 0.364437 5.47815 0.133326 6.72259C-0.0977851 7.96704 -0.0444518 9.1937 0.293326 10.4026C0.631104 11.6115 1.21777 12.6781 2.05333 13.6026C2.88888 14.527 3.89333 15.2204 5.06666 15.6826C4.95999 14.687 4.97777 13.9226 5.11999 13.3893L6.02666 9.38926L5.91999 9.06926C5.84888 8.78481 5.81333 8.50037 5.81333 8.21593C5.81333 7.64704 5.95555 7.17593 6.23999 6.80259C6.52444 6.42926 6.86222 6.24259 7.25333 6.24259C7.57333 6.24259 7.82222 6.34926 7.99999 6.56259C8.17777 6.77592 8.26666 7.04259 8.26666 7.36259C8.26666 7.68259 8.14221 8.2337 7.89333 9.01592L7.62666 10.0293C7.51999 10.4204 7.5911 10.767 7.83999 11.0693C8.08888 11.3715 8.40888 11.5226 8.79999 11.5226C9.5111 11.5226 10.1067 11.1759 10.5867 10.4826C11.0667 9.78926 11.3067 8.90926 11.3067 7.84259C11.3067 6.88259 10.9955 6.10037 10.3733 5.49592C9.7511 4.89148 8.94221 4.58926 7.94666 4.58926C7.23555 4.58926 6.60444 4.74926 6.05333 5.06926C5.50221 5.38926 5.08444 5.81592 4.79999 6.34926C4.51555 6.88259 4.37333 7.45148 4.37333 8.05593C4.37333 8.37593 4.42666 8.70481 4.53333 9.04259C4.63999 9.38037 4.78222 9.65592 4.95999 9.86926C5.0311 9.94037 5.04888 10.0115 5.01333 10.0826L4.79999 10.9893C4.76444 11.1315 4.67555 11.1848 4.53333 11.1493C4.03555 10.9004 3.63555 10.4737 3.33333 9.86926C3.0311 9.26481 2.87999 8.64259 2.87999 8.00259C2.87999 7.14926 3.08444 6.35815 3.49333 5.62926C3.90222 4.90037 4.50666 4.3137 5.30666 3.86926C6.10666 3.42481 7.05777 3.20259 8.15999 3.20259C9.08444 3.20259 9.91999 3.39815 10.6667 3.78926C11.4133 4.18037 12.0089 4.73148 12.4533 5.44259C12.8978 6.1537 13.12 6.9537 13.12 7.84259C13.12 8.73148 12.9422 9.55815 12.5867 10.3226C12.2311 11.087 11.7333 11.6915 11.0933 12.1359C10.4533 12.5804 9.74222 12.8026 8.95999 12.8026C8.56888 12.8026 8.19555 12.7137 7.83999 12.5359C7.48444 12.3581 7.25333 12.127 7.14666 11.8426L6.61333 13.7626C6.4711 14.2959 6.1511 14.9893 5.65333 15.8426C7.14666 16.3048 8.64888 16.3226 10.16 15.8959C11.6711 15.4693 12.9511 14.6693 14 13.4959C15.0489 12.3226 15.6889 10.9626 15.92 9.41592C16.1511 7.86926 15.9378 6.37593 15.28 4.93593C14.6222 3.49592 13.6355 2.34926 12.32 1.49592C11.0044 0.642591 9.56444 0.215924 7.99999 0.215924Z" fill="#012E41"/>
</svg>
