<svg width="14" height="10" viewBox="0 0 14 10" fill="none" xmlns="http://www.w3.org/2000/svg">
<path d="M13.9867 5.18602C13.9867 5.04379 13.9422 4.92824 13.8533 4.83935C13.7644 4.75046 13.6489 4.70602 13.5067 4.70602H1.72L4.86667 1.55935C4.97334 1.45268 5.02667 1.32824 5.02667 1.18602C5.02667 1.04379 4.97334 0.928238 4.86667 0.839349C4.76 0.75046 4.63556 0.706016 4.49334 0.706016C4.35111 0.706016 4.22667 0.741571 4.12 0.812682L0.120003 4.81268C0.0488917 4.91935 0.0133362 5.04379 0.0133362 5.18602C0.0133362 5.32824 0.0488917 5.45268 0.120003 5.55935L4.12 9.55935C4.22667 9.63046 4.35111 9.66602 4.49334 9.66602C4.63556 9.66602 4.76 9.62157 4.86667 9.53268C4.97334 9.44379 5.02667 9.32824 5.02667 9.18602C5.02667 9.04379 4.97334 8.91935 4.86667 8.81268L1.72 5.66602H13.5067C13.6489 5.66602 13.7644 5.62157 13.8533 5.53268C13.9422 5.44379 13.9867 5.32824 13.9867 5.18602Z" fill="#012E41"/>
</svg>
