<svg width="14" height="14" viewBox="0 0 14 14" fill="none" xmlns="http://www.w3.org/2000/svg">
<path d="M3.17333 13.8186C2.98667 13.8808 2.82333 13.8575 2.68333 13.7486C2.54333 13.6397 2.48889 13.4764 2.52 13.2586L3.22 9.15193L0.14 6.21193C0.0155551 6.05638 -0.0233338 5.88527 0.0233329 5.6986C0.0699995 5.51193 0.202222 5.40304 0.42 5.37193L4.66667 4.76527L6.58 0.985267C6.67333 0.7986 6.81333 0.705267 7 0.705267C7.18667 0.705267 7.32667 0.7986 7.42 0.985267L9.33333 4.76527L13.6267 5.37193C13.8133 5.40304 13.93 5.51193 13.9767 5.6986C14.0233 5.88527 13.9844 6.05638 13.86 6.21193L10.78 9.15193L11.48 13.2586C11.5111 13.4764 11.4567 13.6397 11.3167 13.7486C11.1767 13.8575 11.0133 13.8808 10.8267 13.8186L7 11.8119L3.17333 13.8186Z" fill="#FFBE0B"/>
</svg>
