<svg width="16" height="14" viewBox="0 0 16 14" fill="none" xmlns="http://www.w3.org/2000/svg">
<path d="M5.01333 13.2021C6.93333 13.2021 8.64 12.7221 10.1333 11.7621C11.4844 10.8733 12.5333 9.69993 13.28 8.24215C13.9911 6.81993 14.3467 5.36215 14.3467 3.86881V3.44215C14.9867 2.97993 15.5378 2.41104 16 1.73548C15.3956 2.01993 14.7733 2.1977 14.1333 2.26882C14.8444 1.84215 15.3244 1.2377 15.5733 0.455482C14.8978 0.846593 14.2044 1.11326 13.4933 1.25548C12.96 0.722148 12.3289 0.393259 11.6 0.268815C10.8711 0.14437 10.1778 0.259926 9.52 0.615481C8.86222 0.971037 8.38222 1.48659 8.08 2.16215C7.77778 2.8377 7.71556 3.53104 7.89333 4.24215C6.57778 4.17104 5.32444 3.84215 4.13333 3.25548C2.94222 2.66881 1.93778 1.85993 1.12 0.828815C0.693333 1.57548 0.577778 2.36659 0.773333 3.20215C0.968889 4.0377 1.42222 4.70437 2.13333 5.20215C1.6 5.16659 1.10222 5.02437 0.64 4.77548V4.82881C0.64 5.61104 0.888889 6.30437 1.38667 6.90881C1.88444 7.51326 2.50667 7.88659 3.25333 8.02881C2.96889 8.13548 2.68444 8.18882 2.4 8.18882C2.18667 8.18882 1.99111 8.17104 1.81333 8.13548C2.02667 8.77548 2.40889 9.30882 2.96 9.73548C3.51111 10.1621 4.14222 10.3755 4.85333 10.3755C4.28444 10.8377 3.64444 11.1933 2.93333 11.4421C2.22222 11.691 1.51111 11.8155 0.8 11.8155C0.515556 11.8155 0.248889 11.7977 0 11.7621C1.52889 12.7221 3.2 13.2021 5.01333 13.2021Z" fill="#012E41"/>
</svg>
